[Header]
FileType HTR
DataType HTRS
FileVersion 1
NumSegments 64
NumFrames 3
DataFrameRate 30
EulerRotationOrder ZYX
CalibrationUnits mm
RotationUnits Degrees
GlobalAxisofGravity Y
BoneLengthAxis Y
ScaleFactor 1.0
[SegmentNames&Hierarchy]
Hips	GLOBAL
Spine	Hips
Spine1	Spine
Spine2	Spine1
Neck	Spine2
Head	Neck
LeftEye	Head
RightEye	Head
LeftShoulder	Spine2
LeftArm	LeftShoulder
LeftForeArm	LeftArm
LeftHand	LeftForeArm
LeftHandThumb1	LeftHand
LeftHandThumb2	LeftHandThumb1
LeftHandThumb3	LeftHandThumb2
LeftHandThumb4	LeftHandThumb3
LeftHandIndex1	LeftHand
LeftHandIndex2	LeftHandIndex1
LeftHandIndex3	LeftHandIndex2
LeftHandIndex4	LeftHandIndex3
LeftHandMiddle1	LeftHand
LeftHandMiddle2	LeftHandMiddle1
LeftHandMiddle3	LeftHandMiddle2
LeftHandMiddle4	LeftHandMiddle3
LeftHandRing1	LeftHand
LeftHandRing2	LeftHandRing1
LeftHandRing3	LeftHandRing2
LeftHandRing4	LeftHandRing3
LeftHandPinky1	LeftHand
LeftHandPinky2	LeftHandPinky1
LeftHandPinky3	LeftHandPinky2
LeftHandPinky4	LeftHandPinky3
RightShoulder	Spine2
RightArm	RightShoulder
RightForeArm	RightArm
RightHand	RightForeArm
RightHandPinky1	RightHand
RightHandPinky2	RightHandPinky1
RightHandPinky3	RightHandPinky2
RightHandPinky4	RightHandPinky3
RightHandRing1	RightHand
RightHandRing2	RightHandRing1
RightHandRing3	RightHandRing2
RightHandRing4	RightHandRing3
RightHandMiddle1	RightHand
RightHandMiddle2	RightHandMiddle1
RightHandMiddle3	RightHandMiddle2
RightHandMiddle4	RightHandMiddle3
RightHandIndex1	RightHand
RightHandIndex2	RightHandIndex1
RightHandIndex3	RightHandIndex2
RightHandIndex4	RightHandIndex3
RightHandThumb1	RightHand
RightHandThumb2	RightHandThumb1
RightHandThumb3	RightHandThumb2
RightHandThumb4	RightHandThumb3
LeftUpLeg	Hips
LeftLeg	LeftUpLeg
LeftFoot	LeftLeg
LeftToeBase	LeftFoot
RightUpLeg	Hips
RightLeg	RightUpLeg
RightFoot	RightLeg
RightToeBase	RightFoot
[BasePosition]
Hips	0	0	0	0	0	0	1
Spine	0	0	0	0	0	0	1
Spine1	0	0	0	0	0	0	1
Spine2	0	0	0	0	0	0	1
Neck	0	0	0	0	0	0	1
Head	0	0	0	0	0	0	1
LeftEye	0	0	0	0	0	0	1
RightEye	0	0	0	0	0	0	1
LeftShoulder	0	0	0	0	0	0	1
LeftArm	0	0	0	0	0	0	1
LeftForeArm	0	0	0	0	0	0	1
LeftHand	0	0	0	0	0	0	1
LeftHandThumb1	0	0	0	0	0	0	1
LeftHandThumb2	0	0	0	0	0	0	1
LeftHandThumb3	0	0	0	0	0	0	1
LeftHandThumb4	0	0	0	0	0	0	1
LeftHandIndex1	0	0	0	0	0	0	1
LeftHandIndex2	0	0	0	0	0	0	1
LeftHandIndex3	0	0	0	0	0	0	1
LeftHandIndex4	0	0	0	0	0	0	1
LeftHandMiddle1	0	0	0	0	0	0	1
LeftHandMiddle2	0	0	0	0	0	0	1
LeftHandMiddle3	0	0	0	0	0	0	1
LeftHandMiddle4	0	0	0	0	0	0	1
LeftHandRing1	0	0	0	0	0	0	1
LeftHandRing2	0	0	0	0	0	0	1
LeftHandRing3	0	0	0	0	0	0	1
LeftHandRing4	0	0	0	0	0	0	1
LeftHandPinky1	0	0	0	0	0	0	1
LeftHandPinky2	0	0	0	0	0	0	1
LeftHandPinky3	0	0	0	0	0	0	1
LeftHandPinky4	0	0	0	0	0	0	1
RightShoulder	0	0	0	0	0	0	1
RightArm	0	0	0	0	0	0	1
RightForeArm	0	0	0	0	0	0	1
RightHand	0	0	0	0	0	0	1
RightHandPinky1	0	0	0	0	0	0	1
RightHandPinky2	0	0	0	0	0	0	1
RightHandPinky3	0	0	0	0	0	0	1
RightHandPinky4	0	0	0	0	0	0	1
RightHandRing1	0	0	0	0	0	0	1
RightHandRing2	0	0	0	0	0	0	1
RightHandRing3	0	0	0	0	0	0	1
RightHandRing4	0	0	0	0	0	0	1
RightHandMiddle1	0	0	0	0	0	0	1
RightHandMiddle2	0	0	0	0	0	0	1
RightHandMiddle3	0	0	0	0	0	0	1
RightHandMiddle4	0	0	0	0	0	0	1
RightHandIndex1	0	0	0	0	0	0	1
RightHandIndex2	0	0	0	0	0	0	1
RightHandIndex3	0	0	0	0	0	0	1
RightHandIndex4	0	0	0	0	0	0	1
RightHandThumb1	0	0	0	0	0	0	1
RightHandThumb2	0	0	0	0	0	0	1
RightHandThumb3	0	0	0	0	0	0	1
RightHandThumb4	0	0	0	0	0	0	1
LeftUpLeg	0	0	0	0	0	0	1
LeftLeg	0	0	0	0	0	0	1
LeftFoot	0	0	0	0	0	0	1
LeftToeBase	0	0	0	0	0	0	1
RightUpLeg	0	0	0	0	0	0	1
RightLeg	0	0	0	0	0	0	1
RightFoot	0	0	0	0	0	0	1
RightToeBase	0	0	0	0	0	0	1
[Hips]
12	-42.35237885	1027.793335	-83.85253143	-4.336423397	26.67757034	-2.950452566	1.0
13	-39.33859253	1025.437378	-92.18986511	-4.869686604	28.59251022	-3.167697668	1.0
14	-37.55392838	1022.574158	-99.326828	-5.155715942	30.8363533	-2.891591787	1.0
[Spine]
12	0	101.8159943	1.315000057	3.51564002	3.653659821	1.770766377	1.0
13	0	101.8159943	1.315000057	3.396576881	3.788447142	2.190613031	1.0
14	0	101.8159943	1.315000057	3.353336334	3.701931477	2.237558603	1.0
[Spine1]
12	0	100.8349991	-10.00800037	1.50396204	2.354339123	4.878573418	1.0
13	0	100.8349991	-10.00800037	1.323984981	2.560855627	4.983233452	1.0
14	0	100.8349991	-10.00800037	1.204543233	2.574261665	5.006825924	1.0
[Spine2]
12	0	91	-13.73399925	1.358068824	2.093526125	1.7953794	1.0
13	0	91	-13.73399925	1.162817955	2.258912325	1.583442807	1.0
14	0	91	-13.73399925	1.04071641	2.242625475	1.328229547	1.0
[Neck]
12	0	166.7169952	-25.16200066	8.09399128	8.981507301	-1.495565653	1.0
13	0	166.7169952	-25.16200066	8.072935104	8.658006668	-1.479935169	1.0
14	0	166.7169952	-25.16200066	7.958329678	8.248682022	-1.371315479	1.0
[Head]
12	0	96.17900085	16.84999847	-2.975362539	26.88138771	-9.363275528	1.0
13	0	96.17900085	16.84999847	-2.912388325	26.71118736	-9.494390488	1.0
14	0	96.17900085	16.84999847	-2.93414259	26.52701569	-9.619835854	1.0
[LeftEye]
12	30.6760006	64.09500122	92.83599854	0	0	0	1.0
13	30.6760006	64.09500122	92.83599854	0	0	0	1.0
14	30.6760006	64.09500122	92.83599854	0	0	0	1.0
[RightEye]
12	-30.6760006	64.09500122	92.83499908	0	0	0	1.0
13	-30.6760006	64.09500122	92.83499908	0	0	0	1.0
14	-30.6760006	64.09500122	92.83499908	0	0	0	1.0
[LeftShoulder]
12	45.70400238	109.4599991	-26.28000069	5.591806412	-15.32557869	-18.44852257	1.0
13	45.70400238	109.4599991	-26.28000069	5.741607666	-13.82333851	-19.06433487	1.0
14	45.70400238	109.4599991	-26.28000069	5.866400719	-12.02715874	-19.54042625	1.0
[LeftArm]
12	105.923996	-5.24600029	-22.32099915	14.12590218	-1.041354179	-56.79222107	1.0
13	105.923996	-5.24600029	-22.32099915	15.13201618	0.7164847255	-57.19824219	1.0
14	105.923996	-5.24600029	-22.32099915	16.53024483	1.963363767	-57.92801285	1.0
[LeftForeArm]
12	278.414978	-0.0009999999311	0	-2.614239975e-06	-22.71770287	-0.0002073996002	1.0
13	278.414978	-0.0009999999311	0	1.590570605e-06	-23.27945328	-0.0002080547129	1.0
14	278.414978	-0.0009999999311	0	-6.00280373e-07	-23.40298271	-0.0001907854748	1.0
[LeftHand]
12	283.2879944	0	0	-22.73184204	-1.80798614	13.24025345	1.0
13	283.2879944	0	0	-23.32718086	-1.540908575	13.10298347	1.0
14	283.2879944	0	0	-24.21540642	-1.447162867	12.63525581	1.0
[LeftHandThumb1]
12	24.6609993	-15.75	26.8239994	-0.4889881611	2.201389551	4.818526268	1.0
13	24.6609993	-15.75	26.8239994	-0.4889881611	2.201389551	4.818526268	1.0
14	24.6609993	-15.75	26.8239994	-0.4889881611	2.201389551	4.818526268	1.0
[LeftHandThumb2]
12	32.29800034	-18.64699936	18.64699936	20.95335388	18.61181641	23.07989693	1.0
13	32.29800034	-18.64699936	18.64699936	20.60080528	17.62312508	22.63459969	1.0
14	32.29800034	-18.64699936	18.64699936	20.24676323	16.55847168	22.17976379	1.0
[LeftHandThumb3]
12	26.52600098	-15.31499958	15.31499958	-12.36948872	4.177183151	8.418302536	1.0
13	26.52600098	-15.31499958	15.31499958	-12.67713547	4.571115494	8.135598183	1.0
14	26.52600098	-15.31499958	15.31499958	-12.86676598	4.86030817	7.900079727	1.0
[LeftHandThumb4]
12	19.54599953	-11.28499985	11.28499985	0	0	0	1.0
13	19.54599953	-11.28499985	11.28499985	0	0	0	1.0
14	19.54599953	-11.28499985	11.28499985	0	0	0	1.0
[LeftHandIndex1]
12	91.09299469	-5.170999527	22.60099792	0.1969117522	-0.6126611233	-8.689367294	1.0
13	91.09299469	-5.170999527	22.60099792	0.1578188241	-0.7555521131	-8.422200203	1.0
14	91.09299469	-5.170999527	22.60099792	0.1452811956	-0.834030509	-8.186743736	1.0
[LeftHandIndex2]
12	36.76399994	0	0	-0.2673223019	1.747155905	-17.39688873	1.0
13	36.76399994	0	0	-0.2673263252	1.747161269	-17.39689827	1.0
14	36.76399994	0	0	-0.2673268318	1.747159243	-17.39689827	1.0
[LeftHandIndex3]
12	28.83100128	0	0	-0.05772060528	0.8194039464	-8.058783531	1.0
13	28.83100128	0	0	-0.05772300437	0.8193997741	-8.058792114	1.0
14	28.83100128	0	0	-0.05772444978	0.8193976879	-8.058793068	1.0
[LeftHandIndex4]
12	23.92700005	0	0	0	0	0	1.0
13	23.92700005	0	0	0	0	0	1.0
14	23.92700005	0	0	0	0	0	1.0
[LeftHandMiddle1]
12	95.33399963	0	0	-0.8697248101	3.269938707	-16.80690575	1.0
13	95.33399963	0	0	-0.8521415591	3.338855028	-16.55066109	1.0
14	95.33399963	0	0	-0.8381388187	3.406042814	-16.34550285	1.0
[LeftHandMiddle2]
12	36.98199844	0	0	-0.270236671	1.756403804	-17.49198341	1.0
13	36.98199844	0	0	-0.269807905	1.755048275	-17.47803879	1.0
14	36.98199844	0	0	-0.2693537772	1.753617764	-17.46329117	1.0
[LeftHandMiddle3]
12	29.50900078	0	0	-0.3019175529	1.853909016	-18.49786568	1.0
13	29.50900078	0	0	-0.3014708757	1.852555752	-18.48389435	1.0
14	29.50900078	0	0	-0.3009947538	1.851124525	-18.46912193	1.0
[LeftHandMiddle4]
12	28.3390007	0	0	0	0	0	1.0
13	28.3390007	0	0	0	0	0	1.0
14	28.3390007	0	0	0	0	0	1.0
[LeftHandRing1]
12	91.04499817	-0.4390000105	-18.65100098	-1.253970981	3.654105902	-22.07044411	1.0
13	91.04499817	-0.4390000105	-18.65100098	-1.238144159	3.520085812	-21.86588097	1.0
14	91.04499817	-0.4390000105	-18.65100098	-1.219621897	3.398607254	-21.62481117	1.0
[LeftHandRing2]
12	31.54000092	0	0	-0.3855676949	2.087215662	-20.93010139	1.0
13	31.54000092	0	0	-0.3843944669	2.084141016	-20.89781952	1.0
14	31.54000092	0	0	-0.382671535	2.079642296	-20.85059547	1.0
[LeftHandRing3]
12	29.37700081	0	0	-0.2823239863	1.794316292	-17.88243866	1.0
13	29.37700081	0	0	-0.2813362479	1.791246176	-17.85074806	1.0
14	29.37700081	0	0	-0.2798833251	1.786719441	-17.80406952	1.0
[LeftHandRing4]
12	26.47500038	0	0	0	0	0	1.0
13	26.47500038	0	0	0	0	0	1.0
14	26.47500038	0	0	0	0	0	1.0
[LeftHandPinky1]
12	80.77799988	-4.887000084	-38.06099701	-1.683467388	6.145458698	-27.48632431	1.0
13	80.77799988	-4.887000084	-38.06099701	-1.661252737	6.304065228	-27.20093536	1.0
14	80.77799988	-4.887000084	-38.06099701	-1.640748739	6.359779358	-26.92794228	1.0
[LeftHandPinky2]
12	36	0	0	-0.2667091787	1.745196104	-17.3767395	1.0
13	36	0	0	-0.2663985193	1.744195342	-17.36644936	1.0
14	36	0	0	-0.265673697	1.741892934	-17.34279442	1.0
[LeftHandPinky3]
12	21.14200211	0	0	-0.2400881499	1.657751322	-16.48002434	1.0
13	21.14200211	0	0	-0.2398160994	1.656841397	-16.47067451	1.0
14	21.14200211	0	0	-0.2391468436	1.654569626	-16.44743347	1.0
[LeftHandPinky4]
12	19.75699997	0	0	0	0	0	1.0
13	19.75699997	0	0	0	0	0	1.0
14	19.75699997	0	0	0	0	0	1.0
[RightShoulder]
12	-45.70000076	109.4620056	0	4.892582417	13.53399563	15.06881523	1.0
13	-45.70000076	109.4620056	0	4.902956963	13.57293606	15.07594013	1.0
14	-45.70000076	109.4620056	0	4.960969925	13.76725101	15.17595577	1.0
[RightArm]
12	-105.9280014	-5.248000145	-22.32099915	29.66350746	-8.024814606	51.09231186	1.0
13	-105.9280014	-5.248000145	-22.32099915	29.31271553	-8.748285294	49.96198654	1.0
14	-105.9280014	-5.248000145	-22.32099915	28.70694351	-9.083721161	49.02088165	1.0
[RightForeArm]
12	-278.414978	0	0	-8.464810435e-07	14.21478367	-1.025292113e-05	1.0
13	-278.414978	0	0	-3.692653308e-06	14.43316364	-1.112040354e-05	1.0
14	-278.414978	0	0	-4.772213742e-06	14.51331139	-4.545368483e-06	1.0
[RightHand]
12	-283.2879944	0	0.0009999999311	-26.34555435	-7.705220699	6.422429085	1.0
13	-283.2879944	0	0.0009999999311	-26.71980286	-8.836766243	6.829329491	1.0
14	-283.2879944	0	0.0009999999311	-26.99974251	-9.920683861	7.265309334	1.0
[RightHandPinky1]
12	-80.76699829	-4.885000229	-38.06000137	-1.611441851	-4.270223141	26.87751389	1.0
13	-80.76699829	-4.885000229	-38.06000137	-1.599816084	-4.324762344	26.84975624	1.0
14	-80.76699829	-4.885000229	-38.06000137	-1.658067226	-4.139627457	27.16028404	1.0
[RightHandPinky2]
12	-36	0	0.0009999999311	-0.2155514508	-1.397734642	17.5525341	1.0
13	-36	0	0.0009999999311	-0.2155319452	-1.397638679	17.55129242	1.0
14	-36	0	0.0009999999311	-0.2149430364	-1.39577055	17.52714157	1.0
[RightHandPinky3]
12	-21.14200211	0	0	-0.1943445206	-1.328765273	16.64153862	1.0
13	-21.14200211	0	0	-0.1943409443	-1.328761339	16.64150047	1.0
14	-21.14200211	0	0	-0.193674624	-1.326510549	16.61266327	1.0
[RightHandPinky4]
12	-19.75699997	0	0	0	0	0	1.0
13	-19.75699997	0	0	0	0	0	1.0
14	-19.75699997	0	0	0	0	0	1.0
[RightHandRing1]
12	-91.03599548	-0.4390000105	-18.65100098	-1.071199417	-2.72730875	20.87364769	1.0
13	-91.03599548	-0.4390000105	-18.65100098	-1.071572542	-2.732877493	20.87940788	1.0
14	-91.03599548	-0.4390000105	-18.65100098	-1.091923952	-2.688216448	21.18623924	1.0
[RightHandRing2]
12	-31.54000092	0	0	-0.3056072891	-1.655929446	20.91184044	1.0
13	-31.54000092	0	0	-0.3055688143	-1.655798316	20.91029739	1.0
14	-31.54000092	0	0	-0.3059191108	-1.656704783	20.92240906	1.0
[RightHandRing3]
12	-29.37700081	0	0	-0.2236108482	-1.422993183	17.86053848	1.0
13	-29.37700081	0	0	-0.223581925	-1.422870159	17.85896111	1.0
14	-29.37700081	0	0	-0.2238886058	-1.423814178	17.87117386	1.0
[RightHandRing4]
12	-26.47500038	0	0	0	0	0	1.0
13	-26.47500038	0	0	0	0	0	1.0
14	-26.47500038	0	0	0	0	0	1.0
[RightHandMiddle1]
12	-95.32500458	0	0	-0.7055230737	-2.195206404	15.07627106	1.0
13	-95.32500458	0	0	-0.6997255683	-2.223208189	14.97856998	1.0
14	-95.32500458	0	0	-0.7096137404	-2.287347794	15.14266205	1.0
[RightHandMiddle2]
12	-36.98199844	0	0	-0.2148848176	-1.395611525	17.50549698	1.0
13	-36.98199844	0	0	-0.2147644311	-1.39523375	17.50067711	1.0
14	-36.98199844	0	0	-0.2153554112	-1.397111058	17.52499771	1.0
[RightHandMiddle3]
12	-29.50900078	0	0	-0.2401384711	-1.47529006	18.51427078	1.0
13	-29.50900078	0	0	-0.2400126904	-1.474905968	18.50928116	1.0
14	-29.50900078	0	0	-0.2406289726	-1.4767555	18.53338051	1.0
[RightHandMiddle4]
12	-28.3390007	0	0.0009999999311	0	0	0	1.0
13	-28.3390007	0	0.0009999999311	0	0	0	1.0
14	-28.3390007	0	0.0009999999311	0	0	0	1.0
[RightHandIndex1]
12	-91.08300018	-5.167999744	22.60099792	0.1452815384	1.213549256	7.523097992	1.0
13	-91.08300018	-5.167999744	22.60099792	0.1657272577	1.21568048	7.28932333	1.0
14	-91.08300018	-5.167999744	22.60099792	0.1547328383	1.261403918	7.134336472	1.0
[RightHandIndex2]
12	-36.76399994	0	0	-0.2118471563	-1.385932326	17.38023949	1.0
13	-36.76399994	0	0	-0.2125873119	-1.388290167	17.41077423	1.0
14	-36.76399994	0	0	-0.2120696902	-1.386641383	17.38928032	1.0
[RightHandIndex3]
12	-28.83100128	0	0	-0.04545364156	-0.6479313374	8.026088715	1.0
13	-28.83100128	0	0	-0.04580097273	-0.6503727436	8.056610107	1.0
14	-28.83100128	0	0	-0.04556211829	-0.648642838	8.03513813	1.0
[RightHandIndex4]
12	-23.92700005	0	0	0	0	0	1.0
13	-23.92700005	0	0	0	0	0	1.0
14	-23.92700005	0	0	0	0	0	1.0
[RightHandThumb1]
12	-24.64799881	-15.72700024	26.82600021	-1.658465981	-0.2891423702	-4.221325874	1.0
13	-24.64799881	-15.72700024	26.82600021	-1.658465981	-0.2891423702	-4.221325874	1.0
14	-24.64799881	-15.72700024	26.82600021	-1.658465981	-0.2891423702	-4.221325874	1.0
[RightHandThumb2]
12	-32.29800034	-18.64699936	18.64699936	22.17467117	-23.1773262	-23.96182442	1.0
13	-32.29800034	-18.64699936	18.64699936	22.32757568	-23.09855652	-23.95713997	1.0
14	-32.29800034	-18.64699936	18.64699936	22.46315575	-22.68383408	-23.79795456	1.0
[RightHandThumb3]
12	-26.52600098	-15.31399918	15.31399918	-14.49500847	-6.728857994	-11.36872101	1.0
13	-26.52600098	-15.31399918	15.31399918	-14.49443913	-6.719347954	-11.37233448	1.0
14	-26.52600098	-15.31399918	15.31399918	-14.48126411	-6.684091568	-11.3916626	1.0
[RightHandThumb4]
12	-19.54599953	-11.28499985	11.28499985	0	0	0	1.0
13	-19.54599953	-11.28499985	11.28499985	0	0	0	1.0
14	-19.54599953	-11.28499985	11.28499985	0	0	0	1.0
[LeftUpLeg]
12	82.07800293	-67.51699829	-15.99599934	-7.846199989	37.29350662	10.24139977	1.0
13	82.07800293	-67.51699829	-15.99599934	-8.797751427	37.35197067	8.092166901	1.0
14	82.07800293	-67.51699829	-15.99599934	-10.41627979	36.99066162	6.126006126	1.0
[LeftLeg]
12	0	-443.7049866	2.845999956	22.35930824	7.846815586	2.785709143	1.0
13	0	-443.7049866	2.845999956	21.47640419	6.800475597	5.528803349	1.0
14	0	-443.7049866	2.845999956	22.33507347	6.19028616	7.26306963	1.0
[LeftFoot]
12	0	-444.2789917	-29.8219986	-11.2463541	27.84272003	-8.178542137	1.0
13	0	-444.2789917	-29.8219986	-8.51072216	27.47794533	-8.879601479	1.0
14	0	-444.2789917	-29.8219986	-6.44715023	26.19417	-8.811595917	1.0
[LeftToeBase]
12	0	-87.28699493	107.1060028	-8.006176949	1.056103429e-05	1.760988198e-06	1.0
13	0	-87.28699493	107.1060028	-6.311110497	1.074869124e-05	1.588397481e-06	1.0
14	0	-87.28699493	107.1060028	-4.956573486	-1.232387694e-05	3.001017603e-06	1.0
[RightUpLeg]
12	-82.07800293	-67.51699829	-15.99599934	-9.014346123	-43.51959991	5.583752155	1.0
13	-82.07800293	-67.51699829	-15.99599934	-10.28593731	-42.99861145	5.296896935	1.0
14	-82.07800293	-67.51699829	-15.99599934	-13.31850243	-34.98998642	4.078441143	1.0
[RightLeg]
12	0	-443.7049866	2.861999989	14.34543896	-8.975136757	-5.625388622	1.0
13	0	-443.7049866	2.861999989	17.06360054	-8.566625595	-6.229186535	1.0
14	0	-443.7049866	2.861999989	24.54626274	-8.100726128	-6.721230984	1.0
[RightFoot]
12	0	-444.2770081	-29.83799934	-5.188405037	-1.366507292	0.09253344685	1.0
13	0	-444.2770081	-29.83799934	-5.545535564	-3.868164778	0.2518942356	1.0
14	0	-444.2770081	-29.83799934	-5.217276573	-13.11347675	0.1160106361	1.0
[RightToeBase]
12	0	-87.28699493	107.1060028	-7.278042793	1.658098518e-05	-9.246321042e-07	1.0
13	0	-87.28699493	107.1060028	-7.311127663	1.594974719e-06	-6.260635246e-07	1.0
14	0	-87.28699493	107.1060028	-7.462790966	-7.978040912e-07	-8.91724369e-07	1.0
[EndOfFile]
